# xmcd
#
# Track frame offsets:
#	150
#	18102
#	41527
#	69707
#	87770
#	110115
#	131245
#	148702
#	170067
#	182375
#	199877
#	214412
#	233012
#	256805
#
# Disc length: 3584 seconds
#
# Revision: 1
# Processed by: cddbd v1.4PL0 Copyright (c) Steve Scherf et al.
# Submitted via: audiograbber 1.80
#
DISCID=cb0dfe0e
DTITLE=Hapka - Horacek - Zlata kolekce - ... a neco navic
DYEAR=1900
DGENRE=
TTITLE0=Vitejte v absurdistanu
TTITLE1=Rozvod
TTITLE2=Baroko
TTITLE3=Srdce jako knize rohan
TTITLE4=Sebastian
TTITLE5=Uderte do zvonu
TTITLE6=Svatebni pisen
TTITLE7=Nina Ricci
TTITLE8=Uhozena ukolebavka
TTITLE9=Obraz Doriana Graye
TTITLE10=Obludarium
TTITLE11=Ja rada vzpominam
TTITLE12=Sny spravedlivych
TTITLE13=Saskove pocmarani
EXTD=
EXTT0=
EXTT1=
EXTT2=
EXTT3=
EXTT4=
EXTT5=
EXTT6=
EXTT7=
EXTT8=
EXTT9=
EXTT10=
EXTT11=
EXTT12=
EXTT13=
PLAYORDER=
